<svg version="1.1" id="Layer_1" xmlns="http://www.w3.org/2000/svg" xmlns:xlink="http://www.w3.org/1999/xlink" x="0px" y="0px"
	 width="100%" viewBox="0 0 1024 1024" enable-background="new 0 0 1024 1024" xml:space="preserve">
<path fill="#000000" opacity="1.000000" stroke="none" 
	d="
M143.066589,418.664246 
	C155.479279,418.289551 167.366241,420.246399 180.363907,419.475586 
	C170.049881,410.922028 160.500961,402.996521 150.944763,395.079803 
	C142.737930,388.280884 134.569000,381.434875 126.281815,374.735199 
	C123.937401,372.839844 123.529037,370.941681 124.658554,368.217590 
	C125.740761,365.607605 126.699928,363.522705 130.196198,363.656128 
	C147.658463,364.322571 165.129456,364.757812 182.592728,365.400696 
	C188.208633,365.607452 193.805389,365.848297 199.439072,365.409241 
	C199.419632,363.738770 198.216476,363.245972 197.385040,362.564789 
	C181.155426,349.268127 164.917450,335.981445 148.640732,322.742493 
	C142.811462,318.001099 142.749619,317.981110 146.683868,310.899139 
	C148.468918,310.215454 149.454880,311.613617 150.559753,312.507904 
	C171.008850,329.059845 191.409256,345.672119 211.902786,362.168732 
	C214.848801,364.540192 216.047363,366.689423 214.575851,370.646545 
	C213.104294,374.603790 210.783264,375.452332 207.012634,375.317139 
	C187.050964,374.601410 167.083679,374.041534 147.117767,373.446198 
	C144.969666,373.382141 142.817993,373.437592 140.643753,373.437592 
	C140.191910,375.364929 141.661072,375.937042 142.575012,376.689941 
	C158.382065,389.712402 174.207062,402.713196 190.068954,415.668762 
	C193.376114,418.369934 196.555511,420.623901 193.940811,425.911438 
	C192.310898,429.207520 190.453125,430.205231 187.040649,430.077423 
	C160.597214,429.086670 134.149292,428.215393 107.703209,427.294434 
	C106.407310,427.249298 105.007149,427.530853 103.963028,426.396851 
	C104.277763,418.988556 105.604912,417.541748 112.636482,417.698120 
	C122.618431,417.920135 132.596161,418.331360 143.066589,418.664246 
z"/>
<path fill="#000000" opacity="1.000000" stroke="none" 
	d="
M868.148682,535.113098 
	C850.542053,526.919861 843.845825,512.321045 842.709412,494.353546 
	C842.090088,484.561462 841.820618,474.745605 841.090759,464.963013 
	C840.834534,461.528107 842.334656,460.446655 845.252563,460.271667 
	C853.056458,459.803619 860.859375,459.307068 868.667603,458.923981 
	C886.449280,458.051544 904.236511,457.289429 922.014832,456.355072 
	C924.933472,456.201691 925.986816,457.468994 926.054932,460.056000 
	C926.405212,473.367218 928.078796,486.657654 927.191895,499.983368 
	C925.288452,528.584167 896.380066,545.888611 868.148682,535.113098 
M911.472046,515.949585 
	C914.789612,511.663055 916.995178,506.906219 917.986450,501.535828 
	C919.984436,490.710754 917.615051,479.965973 917.551270,469.181580 
	C917.536865,466.746216 915.779053,466.849152 913.997498,466.930634 
	C902.688721,467.447845 891.375977,467.881805 880.068237,468.419464 
	C871.590637,468.822479 863.117920,469.329773 854.644287,469.812378 
	C852.104797,469.957031 850.060730,470.532074 850.327271,473.870300 
	C850.962524,481.827057 851.231262,489.817993 852.045166,497.754395 
	C853.476807,511.715057 860.256592,522.163818 873.914185,526.555115 
	C888.150024,531.132263 900.845886,527.941406 911.472046,515.949585 
z"/>
<path fill="#000000" opacity="1.000000" stroke="none" 
	d="
M302.485718,226.694214 
	C314.770752,246.975296 299.141907,275.964630 272.318329,273.813690 
	C271.995056,275.620300 273.433228,276.546478 274.428436,277.447021 
	C277.663635,280.374451 276.724457,282.514069 273.833405,285.117462 
	C270.621765,288.009583 269.248230,285.607086 267.457092,283.616150 
	C249.856903,264.052887 232.245575,244.499664 214.632431,224.948074 
	C212.529434,222.613632 210.616714,220.680298 214.217407,217.604568 
	C217.228027,215.032883 218.964645,215.115677 221.491074,218.025848 
	C227.928223,225.440659 234.612015,232.641312 241.058914,239.774734 
	C242.064041,239.917953 242.086426,239.377686 242.148743,238.881058 
	C244.024231,223.934494 252.755859,213.460556 266.391052,209.803055 
	C278.797394,206.475159 291.471893,211.577835 300.330383,223.482315 
	C301.025269,224.416153 301.639679,225.409851 302.485718,226.694214 
M279.480621,265.201050 
	C280.893372,264.716187 282.356964,264.343323 283.710968,263.728973 
	C296.016968,258.145203 300.993530,243.922806 294.709778,232.398102 
	C287.294373,218.797791 272.437683,214.320709 260.571655,222.110565 
	C251.139236,228.302811 247.606842,238.742203 251.433105,249.118134 
	C255.574829,260.349518 266.499878,266.888428 279.480621,265.201050 
z"/>
<path fill="#000000" opacity="1.000000" stroke="none" 
	d="
M724.261108,836.238953 
	C720.312134,853.454102 703.101501,861.034058 691.320679,860.276306 
	C677.229797,859.369873 664.456604,847.485535 661.716736,832.644165 
	C657.593018,810.306580 676.124939,791.823975 698.684326,795.767639 
	C699.459412,795.903137 700.250000,795.949890 702.090393,796.156860 
	C697.105957,787.697754 692.651794,779.954590 687.998840,772.332642 
	C686.138855,769.285706 686.385925,767.396423 689.669861,765.519226 
	C692.791321,763.735107 694.436096,763.981750 696.333679,767.265808 
	C707.322205,786.284424 718.527466,805.177856 729.661804,824.112244 
	C731.854492,827.841003 733.980713,831.611816 736.277771,835.275330 
	C738.325745,838.541565 735.873718,839.615417 733.795593,841.057007 
	C731.424255,842.702087 729.625061,842.688904 728.153931,839.873169 
	C727.325745,838.288208 726.116516,836.901672 725.057922,835.440979 
	C725.020630,835.389587 724.729553,835.461060 724.609253,835.547913 
	C724.483765,835.638550 724.421936,835.817322 724.261108,836.238953 
M673.055481,836.318909 
	C674.068604,838.035156 674.949341,839.847778 676.116577,841.451965 
	C683.155029,851.125366 695.638794,853.786316 705.903076,847.871216 
	C716.652283,841.676514 720.381775,829.963745 715.210938,818.639099 
	C709.289246,805.670044 696.827209,800.062622 684.992126,805.041931 
	C672.472656,810.309204 667.630615,822.394226 673.055481,836.318909 
z"/>
<path fill="#000000" opacity="1.000000" stroke="none" 
	d="
M548.765137,131.348938 
	C561.611450,150.847168 554.257507,175.447784 533.738037,182.296997 
	C524.447266,185.398178 511.349548,185.348358 499.206146,173.001556 
	C499.206146,182.809860 499.086517,191.873199 499.259583,200.930939 
	C499.338959,205.084946 497.693481,206.568436 493.607422,206.327209 
	C490.414154,206.138672 489.339874,205.012070 489.405853,201.735886 
	C489.918945,176.272644 490.252655,150.805801 490.668854,125.340523 
	C490.718292,122.315979 489.748383,118.797752 494.958649,118.767403 
	C499.846802,118.738922 500.349182,121.529716 500.146576,125.254570 
	C500.094543,126.211349 500.246429,127.179214 500.313507,128.288559 
	C519.331970,114.857941 535.727905,115.860275 548.765137,131.348938 
M543.095581,140.546356 
	C539.367859,132.322372 532.758179,127.965591 523.982178,127.432899 
	C508.778656,126.510094 498.854706,138.156433 500.178894,154.862442 
	C501.036560,165.682938 508.889648,174.001251 519.021301,174.821152 
	C532.144104,175.883118 541.420837,170.040344 544.358765,158.818848 
	C545.916260,152.869675 545.768616,146.990723 543.095581,140.546356 
z"/>
<path fill="#000000" opacity="1.000000" stroke="none" 
	d="
M459.012207,187.261932 
	C447.811035,192.021164 437.340607,191.807892 426.503479,184.117630 
	C428.437012,193.788803 430.066589,202.487915 431.954987,211.130493 
	C432.777130,214.893158 432.348663,216.973816 427.859558,217.649017 
	C424.523224,218.150833 423.342926,217.286728 422.723938,214.239639 
	C419.116852,196.483688 415.388824,178.752304 411.764435,160.999802 
	C410.200287,153.338348 409.002960,145.595230 407.211395,137.989929 
	C406.340179,134.291718 407.437775,132.909027 410.911713,132.067184 
	C414.617004,131.169312 415.707642,132.963104 416.243530,136.013748 
	C416.498505,137.465256 416.974335,138.877975 417.517426,140.945129 
	C427.425995,126.513161 440.713379,122.182579 456.501251,127.597961 
	C470.841919,132.516922 476.137451,144.506424 476.675385,158.538986 
	C477.171936,171.492218 471.048157,181.170135 459.012207,187.261932 
M438.486511,181.341003 
	C457.236572,183.637360 468.711090,173.002808 466.749817,155.146652 
	C465.619110,144.852142 459.294159,137.381149 449.548126,134.828186 
	C440.564240,132.474869 430.158173,136.322388 424.973419,144.088440 
	C416.910583,156.165451 422.265106,176.371017 438.486511,181.341003 
z"/>
<path fill="#000000" opacity="1.000000" stroke="none" 
	d="
M353.606049,198.738068 
	C348.365967,200.034912 346.674744,203.061218 347.187347,208.024338 
	C347.612488,212.140564 347.297974,216.335190 347.278564,220.494919 
	C347.249237,226.775543 345.509583,228.479584 338.558258,229.068588 
	C337.323151,227.659592 337.765167,225.923386 337.766083,224.318222 
	C337.781433,197.362457 337.864868,170.406693 337.840149,143.451004 
	C337.836700,139.720428 338.286194,136.923065 342.366943,135.086487 
	C346.294128,133.319031 348.487854,134.874557 351.124908,137.188385 
	C371.508331,155.073410 391.959229,172.881546 412.363190,190.743195 
	C413.563995,191.794373 415.193939,192.613403 415.274445,194.548096 
	C409.672821,199.125244 407.912292,199.236679 402.875610,195.011978 
	C399.307617,192.019196 395.736816,189.008026 392.410431,185.756317 
	C390.029480,183.428864 387.873535,183.159714 384.853943,184.576675 
	C374.617554,189.380219 364.261536,193.928726 353.606049,198.738068 
M373.483032,169.027161 
	C364.941864,161.473999 356.400696,153.920837 347.708923,146.234512 
	C347.708923,161.655319 347.708923,176.471878 347.708923,192.242874 
	C359.526276,186.962616 370.589203,182.436249 381.689697,176.487839 
	C378.647400,173.733826 376.319489,171.626526 373.483032,169.027161 
z"/>
<path fill="#000000" opacity="1.000000" stroke="none" 
	d="
M222.198624,751.680847 
	C219.812881,745.971069 216.811127,740.906006 215.680542,735.112610 
	C212.593521,719.293884 226.730255,706.562988 242.247772,711.181824 
	C256.961487,715.561401 272.303711,736.087830 272.352264,751.442200 
	C272.359741,753.812683 272.520538,756.176697 269.487823,757.041260 
	C266.165314,757.988342 263.979004,758.188416 263.671997,753.437683 
	C262.901184,741.511902 257.241638,731.889771 248.183548,724.291748 
	C244.553635,721.246948 240.286652,719.053101 235.377441,719.758362 
	C227.121750,720.944214 223.259445,728.423401 226.237442,737.297424 
	C229.362900,746.610901 234.726852,755.000305 237.541061,764.463379 
	C240.675751,775.003967 238.184479,783.206238 229.619965,788.980652 
	C222.670013,793.666504 215.176346,793.987671 207.822449,790.229553 
	C194.351944,783.345642 186.802628,771.777588 182.925140,757.496155 
	C181.902939,753.731140 184.114578,752.517822 187.176712,751.650757 
	C190.600769,750.681152 190.875427,752.723877 191.512192,755.262268 
	C193.921844,764.868225 198.442978,773.228027 206.588928,779.296997 
	C210.377411,782.119568 214.519928,783.432373 219.232437,782.719055 
	C224.913940,781.859192 228.773071,777.497498 228.850937,771.755066 
	C228.950058,764.445312 225.137833,758.399109 222.198624,751.680847 
z"/>
<path fill="#000000" opacity="1.000000" stroke="none" 
	d="
M157.811737,497.789124 
	C165.993347,491.351471 173.896530,485.133698 182.042419,478.725006 
	C184.582260,486.342377 183.867111,488.978546 178.581192,493.281342 
	C169.970795,500.290253 161.346024,507.281555 152.553345,514.421570 
	C155.963516,519.527222 160.214951,523.271973 164.021011,527.399536 
	C165.292374,528.778259 167.000809,528.710266 168.668213,528.717041 
	C171.997604,528.730530 175.338440,528.899353 178.653549,528.682678 
	C182.565521,528.426880 183.363419,530.365967 183.388794,533.817688 
	C183.414841,537.359070 181.992508,538.419189 178.640320,538.429932 
	C152.176147,538.514771 125.712013,538.680237 99.248749,538.918945 
	C95.423897,538.953491 93.491180,537.993225 93.539597,533.600464 
	C93.586433,529.351379 95.555222,528.696045 99.098709,528.718201 
	C114.580002,528.815125 130.062393,528.765808 145.544174,528.710449 
	C147.305374,528.704102 149.186920,529.199158 150.908356,528.022766 
	C150.822311,525.724854 148.945602,524.644958 147.673218,523.239563 
	C139.183517,513.861511 130.733856,504.443665 122.062416,495.235382 
	C118.341843,491.284424 118.469650,487.075867 119.654373,482.467133 
	C122.076065,481.934021 122.811523,483.727692 123.891510,484.835754 
	C129.933197,491.034454 136.112473,497.113403 141.877319,503.561707 
	C144.834290,506.869263 147.128830,506.762939 150.144775,503.951630 
	C152.450562,501.802277 155.059311,499.977936 157.811737,497.789124 
z"/>
<path fill="#000000" opacity="1.000000" stroke="none" 
	d="
M198.251602,320.741638 
	C189.320877,310.936920 186.185516,299.994904 190.884857,287.728912 
	C195.255783,276.320129 203.698105,269.190765 215.939331,267.291718 
	C224.857513,265.908173 232.592896,269.189728 239.720398,274.308960 
	C242.486786,276.295868 240.870087,277.889282 239.556213,279.682159 
	C231.189941,291.098419 222.839417,302.526337 214.521454,313.977814 
	C213.571045,315.286255 212.188553,316.392426 212.030579,318.141266 
	C217.702835,322.694214 226.487259,323.213654 233.567810,318.964844 
	C242.135010,313.823914 247.139709,306.357056 246.952286,296.008179 
	C246.902084,293.235901 246.661377,290.757904 250.737625,290.498871 
	C253.913498,290.297058 255.250687,290.923187 255.463867,294.323822 
	C256.345795,308.392212 250.139481,318.861786 238.735397,326.177338 
	C227.405060,333.445526 215.702255,332.752319 204.399368,325.603088 
	C202.301666,324.276276 200.462570,322.540588 198.251602,320.741638 
M214.317200,276.461304 
	C204.879868,279.493286 199.069199,285.846222 197.724365,295.674316 
	C196.768951,302.656464 199.390488,308.563202 205.051910,313.968292 
	C213.721100,302.214355 222.033340,290.944366 230.465408,279.511932 
	C225.419220,275.763306 220.299469,275.982819 214.317200,276.461304 
z"/>
<path fill="#000000" opacity="1.000000" stroke="none" 
	d="
M809.476807,729.771240 
	C804.679565,727.941467 803.920532,725.606201 806.655273,721.347351 
	C813.759460,710.283997 820.460571,698.961060 827.272217,687.711365 
	C828.373962,685.891663 829.838928,684.216797 830.225952,681.369385 
	C823.945984,678.212341 817.566345,678.180542 811.372131,681.435242 
	C799.255493,687.801758 796.036255,698.586792 797.436462,711.234131 
	C790.584106,714.500793 788.882568,713.523071 788.631836,706.429871 
	C787.895691,685.600769 803.690063,668.921509 823.379089,669.736084 
	C838.833069,670.375549 853.599365,684.181519 855.067200,699.363464 
	C856.524658,714.437256 845.861877,729.100220 830.681458,732.693359 
	C823.423706,734.411255 816.479431,733.041992 809.476807,729.771240 
M827.769348,724.275879 
	C838.136047,721.983337 844.657898,715.376892 846.417419,705.385803 
	C847.634338,698.475647 843.822815,690.139343 837.160767,685.886292 
	C829.892578,697.854065 822.632568,709.808350 815.118896,722.180481 
	C819.502014,723.880859 823.033875,725.148438 827.769348,724.275879 
z"/>
<path fill="#000000" opacity="1.000000" stroke="none" 
	d="
M640.827332,837.092896 
	C627.742371,829.673889 613.247192,833.000061 605.125366,845.257874 
	C603.421082,847.830078 602.081726,848.143066 599.532837,846.622742 
	C596.800964,844.993225 596.197021,843.209229 597.863831,840.506409 
	C603.499023,831.368225 611.971558,826.513184 622.266602,824.777466 
	C641.428467,821.546997 657.256592,833.621521 660.162781,853.432129 
	C662.695740,870.698608 650.800537,885.947205 632.566711,888.807861 
	C618.540039,891.008362 602.736877,880.136475 599.431763,866.313660 
	C598.552307,862.635803 601.035889,862.447449 603.096191,861.736145 
	C615.841675,857.336121 628.616028,853.020020 641.377197,848.665466 
	C643.394897,847.976929 645.542969,847.552368 647.518677,845.876404 
	C646.420837,842.195129 644.210693,839.445435 640.827332,837.092896 
M637.300781,857.915649 
	C628.354126,861.138184 619.140503,863.668823 610.442627,867.576233 
	C614.621948,877.734924 624.276306,882.338196 634.710938,879.635742 
	C645.279724,876.898560 652.104919,867.479370 650.925537,857.546814 
	C650.562744,854.490967 649.184204,853.942139 646.567444,854.845276 
	C643.741028,855.820862 640.882690,856.703979 637.300781,857.915649 
z"/>
<path fill="#000000" opacity="1.000000" stroke="none" 
	d="
M867.663452,570.716614 
	C868.235168,567.338379 868.748169,564.388794 869.274292,561.441528 
	C870.112793,556.744385 869.148132,555.745178 864.379089,556.388062 
	C854.445984,557.726929 846.369019,566.858826 845.365356,577.956482 
	C844.892029,583.190430 845.345886,588.325562 848.160828,592.904297 
	C849.740662,595.474060 849.968323,597.191101 846.960999,598.950378 
	C843.824097,600.785522 842.221375,599.739014 840.540894,597.019409 
	C833.978027,586.398438 835.661560,568.647827 844.370300,558.061523 
	C853.308838,547.195801 867.455994,543.736633 881.501404,548.982605 
	C896.351379,554.529053 904.596863,568.582031 901.626709,583.282776 
	C898.295959,599.768066 885.742371,609.883240 869.390686,609.257263 
	C861.778992,608.965820 861.072754,608.009644 862.425964,600.615601 
	C864.221558,590.804810 865.888428,580.970520 867.663452,570.716614 
M871.990295,589.355103 
	C871.380859,592.565918 870.582336,595.757263 870.744629,598.829041 
	C871.770752,599.887573 872.795654,599.799805 873.782349,599.802185 
	C882.261414,599.822693 890.139709,593.510132 892.629333,584.712036 
	C895.398376,574.926636 892.025696,565.501343 883.908936,560.342773 
	C878.851074,557.128296 877.430115,557.683411 876.400208,563.485291 
	C874.921387,571.816406 873.546448,580.166016 871.990295,589.355103 
z"/>
<path fill="#000000" opacity="1.000000" stroke="none" 
	d="
M200.011780,667.316772 
	C190.475601,670.355957 183.833084,668.184143 178.409866,660.350037 
	C173.797348,653.687134 171.673904,645.899902 168.777359,638.467773 
	C166.577850,632.824097 165.820984,632.533203 160.509567,635.513672 
	C154.022690,639.153748 151.633408,645.311462 153.845856,653.056396 
	C155.976349,660.514526 160.048157,666.653564 166.597305,670.979675 
	C168.460068,672.210083 169.193085,673.585205 167.502716,675.430176 
	C166.068726,676.995300 165.453583,679.843506 162.122482,678.280334 
	C152.239044,673.642456 142.024918,653.241150 144.139923,642.477905 
	C145.615494,634.968811 149.926270,629.650024 156.688522,626.731445 
	C168.911209,621.456177 181.364761,616.717468 193.697784,611.695374 
	C196.928711,610.379700 197.792526,612.467834 198.680450,614.791443 
	C199.536575,617.031860 200.684235,619.272644 197.277832,620.450012 
	C196.051392,620.873962 194.857742,621.392822 193.142960,622.067505 
	C203.249771,626.847168 208.466568,634.852783 210.644623,645.152039 
	C212.701157,654.876648 209.245605,662.435730 200.011780,667.316772 
M190.588120,628.682556 
	C185.898956,626.423889 181.323303,626.721375 176.723953,629.072693 
	C175.017426,629.945068 173.827713,630.961975 174.613632,632.902771 
	C177.534821,640.116333 179.372879,647.823608 183.753311,654.375183 
	C186.286682,658.164185 189.742538,660.680664 194.733917,659.084106 
	C199.958298,657.412964 203.057739,653.289246 202.600647,647.804443 
	C201.930984,639.768738 198.550705,633.173279 190.588120,628.682556 
z"/>
<path fill="#000000" opacity="1.000000" stroke="none" 
	d="
M706.204102,238.401367 
	C692.737793,239.146210 683.069702,233.511215 676.726868,222.189484 
	C673.022705,215.577774 674.531921,209.201782 679.005371,203.591736 
	C683.401794,198.078186 689.169678,195.918228 696.300049,197.585236 
	C704.000061,199.385406 709.796021,204.626160 716.521912,208.178528 
	C719.442383,209.721069 721.898865,214.266129 725.892822,211.463593 
	C729.986267,208.591248 731.014099,200.485031 728.211426,195.758652 
	C723.831055,188.371780 716.715454,184.981094 708.620483,183.330078 
	C707.002502,183.000076 705.306946,182.903107 703.651733,182.935349 
	C700.765442,182.991562 698.774414,182.418488 699.006104,178.822739 
	C699.237183,175.236343 700.932983,173.765732 704.449402,174.062973 
	C714.182617,174.885727 722.924622,178.194717 730.366089,184.572525 
	C740.570618,193.318344 742.303650,203.165375 735.399902,214.740814 
	C730.545105,222.880600 725.238525,230.751175 720.120178,238.733307 
	C718.773254,240.833939 717.467102,242.970306 715.975281,244.965485 
	C714.646851,246.742157 714.145691,250.256851 710.547485,248.124664 
	C707.832336,246.515762 704.536438,245.122971 707.408630,240.962692 
	C708.086304,239.981125 708.433167,238.706024 706.204102,238.401367 
M700.912476,207.481735 
	C692.845581,204.365784 688.415955,205.347702 685.462524,210.906509 
	C682.648987,216.202103 684.779602,222.348572 690.944336,226.772736 
	C694.240784,229.138504 697.898438,230.655151 701.869873,231.399948 
	C708.628357,232.667389 715.209290,229.348785 718.647095,223.365311 
	C720.168213,220.717651 719.626221,219.097351 717.214478,217.608612 
	C711.983948,214.379822 706.791870,211.088593 700.912476,207.481735 
z"/>
<path fill="#000000" opacity="1.000000" stroke="none" 
	d="
M466.339874,868.248901 
	C462.656952,885.900818 458.924744,903.111877 455.512909,920.386169 
	C454.810852,923.940918 453.415070,924.765076 450.124573,924.064636 
	C434.202484,920.675476 418.254883,917.406494 402.323212,914.061951 
	C399.626129,913.495850 397.054535,912.885986 397.981812,908.955627 
	C398.804047,905.470520 400.408478,904.508667 403.998566,905.310852 
	C416.489624,908.102051 429.078400,910.456238 441.568176,913.252747 
	C445.182129,914.061890 446.838715,913.162048 447.507843,909.576294 
	C448.880005,902.223328 450.247253,894.859436 451.995789,887.591309 
	C452.829834,884.124329 451.946167,882.836365 448.499786,882.169922 
	C437.573853,880.057251 426.716095,877.594177 415.804199,875.405151 
	C412.702942,874.783081 410.515381,874.224792 411.284241,870.045349 
	C412.058289,865.837463 414.351379,866.080994 417.419800,866.721741 
	C428.005341,868.932190 438.636292,870.933472 449.189850,873.284363 
	C453.372314,874.215942 455.151550,873.225647 455.935608,868.778992 
	C457.601166,859.333313 459.883942,849.996460 461.841522,840.948547 
	C464.186890,839.705566 465.954620,840.674316 467.701721,840.898804 
	C470.562561,841.266235 471.567291,842.901855 470.925903,845.830933 
	C469.324646,853.143555 467.899750,860.494751 466.339874,868.248901 
z"/>
<path fill="#000000" opacity="1.000000" stroke="none" 
	d="
M834.407776,339.501343 
	C810.241455,356.134186 784.036194,339.405090 782.119080,314.541412 
	C781.077148,301.028320 788.172241,291.015594 799.831543,284.480652 
	C811.303406,278.050751 824.633972,279.186737 834.500122,287.045105 
	C852.510315,301.390167 852.603455,325.570892 834.407776,339.501343 
M808.499939,336.205322 
	C815.055908,337.783417 821.098083,336.161255 826.681458,332.855530 
	C836.877502,326.818726 841.366516,315.369598 837.633606,305.568329 
	C833.676697,295.178894 823.924744,288.427917 814.732544,289.714539 
	C802.416687,291.438385 792.370178,300.587646 791.343750,311.014557 
	C790.230896,322.319855 796.585938,332.013641 808.499939,336.205322 
z"/>
<path fill="#000000" opacity="1.000000" stroke="none" 
	d="
M733.043396,801.904785 
	C714.790283,780.625732 728.478882,753.742249 750.833923,748.375122 
	C763.628479,745.303284 778.315796,751.737671 785.501038,763.699463 
	C792.988770,776.164856 791.835632,790.967773 782.575989,801.247559 
	C767.962830,817.470703 748.577942,817.834534 733.043396,801.904785 
M762.508179,757.648926 
	C755.885376,756.368286 749.543274,756.796997 743.926453,760.978943 
	C736.351196,766.618896 732.432861,774.043152 734.420166,783.535278 
	C736.490112,793.421997 742.702148,800.238342 752.257874,803.361145 
	C765.822083,807.793884 780.605835,796.863525 780.945190,782.533447 
	C781.209656,771.369263 775.002014,762.735107 762.508179,757.648926 
z"/>
<path fill="#000000" opacity="1.000000" stroke="none" 
	d="
M855.756104,359.977844 
	C849.808167,359.506744 844.832214,361.457886 839.873962,363.421112 
	C832.605042,366.299316 825.345947,369.203827 818.113525,372.172272 
	C815.209717,373.364075 812.956482,374.003906 811.456238,370.007172 
	C810.124084,366.458252 810.525574,364.643036 814.263428,363.199921 
	C831.177979,356.669312 848.032349,349.979858 864.844055,343.188354 
	C868.060120,341.889130 869.692871,342.549896 870.924377,345.740021 
	C872.075806,348.722839 872.029541,350.818573 868.549805,351.914459 
	C867.338135,352.296021 866.250366,353.071136 864.210510,354.132538 
	C873.034180,357.723358 878.261902,363.859161 881.535645,371.830170 
	C887.205078,385.634033 882.980103,397.768829 869.524719,404.471832 
	C858.351501,410.037933 846.403809,413.816315 834.847168,418.504517 
	C831.412415,419.897888 830.515503,417.999237 829.453857,415.431427 
	C828.345581,412.750702 828.040955,410.808899 831.395630,409.527374 
	C840.562927,406.025513 849.655579,402.328400 858.776550,398.705353 
	C859.858704,398.275513 860.949829,397.862701 862.007935,397.378937 
	C870.761475,393.376556 875.450745,386.883087 874.519592,380.082733 
	C872.959106,368.686005 866.349365,361.442169 855.756104,359.977844 
z"/>
<path fill="#000000" opacity="1.000000" stroke="none" 
	d="
M355.251587,830.269470 
	C348.881165,840.535339 345.199951,851.651184 340.501099,862.290222 
	C338.948761,865.804993 337.315735,866.791809 333.691162,865.122559 
	C330.567963,863.684082 329.897369,862.129700 331.314178,858.956970 
	C337.217407,845.737549 342.933044,832.434204 348.699646,819.153870 
	C350.157806,815.795715 351.650421,812.446899 352.943817,809.024475 
	C354.174805,805.767151 355.837646,804.715271 359.385956,806.207214 
	C363.018555,807.734558 363.304077,809.700684 361.624512,812.757874 
	C361.171448,813.582642 361.045837,814.587280 360.511078,816.373962 
	C369.039398,812.957947 376.885315,812.990723 384.690247,816.654968 
	C399.035034,823.389526 404.390381,835.621582 398.611664,850.389221 
	C394.309692,861.383179 389.170074,872.046692 384.600769,882.940125 
	C383.161499,886.371338 381.221222,885.682312 378.655914,884.646973 
	C375.786926,883.488953 374.163025,882.233521 375.747009,878.753052 
	C380.157776,869.061218 384.371857,859.279236 388.608917,849.509155 
	C393.201965,838.918396 391.109131,830.744263 382.561401,825.587952 
	C372.556885,819.552856 362.497772,821.177795 355.251587,830.269470 
z"/>
<path fill="#000000" opacity="1.000000" stroke="none" 
	d="
M180.507187,572.747131 
	C178.933517,566.315735 176.213638,561.148438 170.618301,557.896912 
	C166.706680,555.623718 169.412506,552.935425 170.467911,550.627747 
	C171.737198,547.852478 173.832642,549.322998 175.495239,550.326721 
	C186.059402,556.704102 189.620544,566.921631 189.610413,578.378052 
	C189.598969,591.328552 183.209427,600.877808 171.548294,606.601624 
	C159.363129,612.582703 144.960846,610.966492 135.627792,602.228333 
	C125.362862,592.617676 122.585686,580.593079 125.738747,567.082642 
	C126.387527,564.302734 127.794540,561.799377 129.575012,559.572021 
	C130.931229,557.875366 132.093857,554.948914 134.959717,557.471497 
	C137.075027,559.333435 139.837265,560.839111 137.134155,564.764893 
	C131.496216,572.953186 131.988861,583.484741 137.719086,591.361694 
	C143.238846,598.949402 153.007294,601.915527 163.314041,599.133362 
	C175.678360,595.795776 181.239426,587.431274 180.507187,572.747131 
z"/>
<path fill="#000000" opacity="1.000000" stroke="none" 
	d="
M649.561157,147.294144 
	C664.721130,145.921295 679.793152,154.528564 683.900757,166.687714 
	C684.587341,168.720108 686.142761,171.331284 682.386658,172.254349 
	C679.669739,172.922043 677.242798,173.961075 675.522888,169.978012 
	C671.060364,159.643295 661.271423,154.676132 649.906677,156.325073 
	C640.710144,157.659424 632.563293,166.827637 631.289612,177.276138 
	C629.020691,195.889175 645.066162,208.551758 662.721008,201.820633 
	C667.001343,200.188705 667.602173,203.290726 668.947632,205.451752 
	C670.785156,208.403015 667.968018,209.186783 666.193848,210.120300 
	C650.141724,218.566681 626.046204,206.209290 621.932617,187.468781 
	C617.812256,168.697449 630.424805,150.113098 649.561157,147.294144 
z"/>
<path fill="#000000" opacity="1.000000" stroke="none" 
	d="
M834.689087,634.552856 
	C833.626160,637.083008 835.855774,637.814941 837.001587,638.953796 
	C847.635742,649.523254 858.387939,659.973816 869.066956,670.498352 
	C874.106018,675.464417 874.114990,676.109314 869.966187,682.328369 
	C868.147095,682.746094 867.329529,681.246643 866.322510,680.253601 
	C852.207642,666.333435 838.163513,652.341187 823.984131,638.487244 
	C821.441650,636.003113 820.385559,633.843323 821.835632,630.203857 
	C823.275208,626.590698 825.469849,625.755737 829.045654,625.595154 
	C848.828552,624.706543 868.600220,623.570740 888.375488,622.513916 
	C889.674683,622.444458 891.026917,621.902466 892.167480,623.011353 
	C891.844543,630.200867 890.382080,631.746704 883.381287,632.092224 
	C867.251343,632.888306 851.119812,633.650330 834.689087,634.552856 
z"/>
<path fill="#000000" opacity="1.000000" stroke="none" 
	d="
M209.623840,694.599365 
	C222.852692,686.553772 223.154724,681.427856 211.309387,671.134705 
	C213.086823,664.576599 215.276566,663.806458 220.461884,667.915771 
	C232.637833,677.565002 232.128433,691.973206 219.079773,700.204468 
	C210.495667,705.619263 201.651352,710.626648 192.857758,715.702454 
	C186.443558,719.404907 186.570862,719.182251 190.363281,724.842346 
	C192.281754,727.705688 191.984604,729.507629 188.812363,731.140076 
	C186.368179,732.397705 184.845032,732.178711 183.552155,729.692078 
	C182.562927,727.789612 181.304428,726.027100 180.053497,724.022583 
	C176.871948,724.616882 174.462967,726.465088 172.039047,728.071167 
	C168.810577,730.210510 167.138168,729.165466 165.356079,726.109070 
	C163.649384,723.182068 163.680283,721.350464 166.910797,719.778015 
	C169.428146,718.552734 171.771881,716.970825 174.372192,715.441895 
	C172.650726,710.393066 169.740540,706.334106 167.176147,702.133789 
	C165.502045,699.391785 166.419083,698.066833 168.778961,696.552063 
	C171.329987,694.914734 172.976013,695.259033 174.444412,697.870178 
	C176.796234,702.052185 179.279190,706.160461 182.011017,710.818787 
	C191.319412,705.350159 200.314804,700.065430 209.623840,694.599365 
z"/>
<path fill="#000000" opacity="1.000000" stroke="none" 
	d="
M734.473999,251.847931 
	C741.788696,241.413315 750.907104,233.050003 758.838562,223.655991 
	C760.005432,222.273956 761.232544,220.942764 762.104309,219.957932 
	C761.944519,215.121368 751.652893,214.164841 757.964233,208.101440 
	C763.134705,203.134079 764.395752,212.027725 769.120850,211.822647 
	C771.430908,210.662796 773.037109,207.834167 775.103149,205.511871 
	C777.486572,202.832855 779.353943,204.028198 781.412292,205.890945 
	C783.425415,207.712753 785.079102,209.359604 782.435242,212.013596 
	C780.341553,214.115265 778.491760,216.459778 776.398499,218.850815 
	C779.003540,223.259079 783.138367,225.874771 786.633972,229.076187 
	C788.827515,231.085083 789.610596,232.626114 787.254517,235.219131 
	C784.904663,237.805328 783.161194,237.277283 781.014099,235.241730 
	C778.601074,232.953979 775.961731,230.897614 773.626648,228.536957 
	C771.188782,226.072189 769.286438,226.264847 767.032776,228.836868 
	C760.129700,236.715225 752.971008,244.371201 746.133118,252.304596 
	C739.575562,259.912872 741.314819,266.771454 750.539551,270.776001 
	C751.743469,271.298615 752.971924,271.764404 754.132629,272.233734 
	C754.189270,279.294708 752.367554,280.584412 746.276184,277.953247 
	C734.803345,272.997620 730.048584,262.779175 734.473999,251.847931 
z"/>
<path fill="#000000" opacity="1.000000" stroke="none" 
	d="
M299.517853,843.540161 
	C309.908142,827.058167 320.163330,810.919861 330.278107,794.693970 
	C332.302490,791.446472 334.074463,790.261963 337.739685,792.744690 
	C341.022491,794.968506 340.624969,796.743835 338.790771,799.619690 
	C326.810608,818.403809 314.973724,837.279297 303.086243,856.122620 
	C300.690948,859.919373 298.082062,863.598022 295.933777,867.529053 
	C293.985992,871.093201 292.002411,870.537781 289.159119,868.665283 
	C286.469971,866.894287 285.410431,865.470520 287.543396,862.362061 
	C291.679840,856.334045 295.425659,850.038025 299.517853,843.540161 
z"/>
<path fill="#000000" opacity="1.000000" stroke="none" 
	d="
M787.855225,732.123474 
	C804.361877,745.653320 820.560791,759.000427 836.874451,772.205811 
	C839.868774,774.629517 840.930420,776.539307 837.951355,779.856262 
	C835.634827,782.435364 834.095032,782.598206 831.414185,780.376221 
	C812.303406,764.536255 793.075562,748.837463 773.884399,733.094543 
	C772.596313,732.037964 771.310059,730.979065 770.011108,729.935913 
	C765.810425,726.562500 766.020020,723.173523 770.502991,720.266846 
	C772.225769,719.149841 773.308289,720.143494 774.467285,721.092712 
	C778.849487,724.681519 783.215149,728.290527 787.855225,732.123474 
z"/>
<path fill="#000000" opacity="1.000000" stroke="none" 
	d="
M281.440643,827.402100 
	C276.308960,834.199646 271.302338,840.647095 266.544250,847.273010 
	C264.321167,850.368835 262.438293,850.204834 259.612885,848.024048 
	C256.968445,845.982849 256.357483,844.411682 258.535583,841.552979 
	C274.885101,820.094543 291.175171,798.589966 307.326019,776.981812 
	C310.071930,773.308167 312.059357,774.965027 314.708740,776.804016 
	C317.633545,778.834229 316.952759,780.535400 315.134766,782.915039 
	C303.914124,797.602173 292.810211,812.378479 281.440643,827.402100 
z"/>
<path fill="#000000" opacity="1.000000" stroke="none" 
	d="
M575.920166,117.117744 
	C576.840942,111.943016 577.840393,107.218872 578.500610,102.447792 
	C578.997498,98.856339 581.016113,98.802284 583.854187,99.329208 
	C586.896973,99.894127 588.684509,100.853569 588.033752,104.545464 
	C584.514465,124.510109 581.157227,144.503311 577.743164,164.486496 
	C576.623596,171.039673 575.319336,177.568436 574.453308,184.154877 
	C573.987976,187.694077 572.357056,188.615585 569.094543,188.150635 
	C565.240845,187.601456 564.210693,185.524292 564.872375,181.902725 
	C567.020752,170.144348 569.091248,158.371170 571.102112,146.588394 
	C572.752197,136.919662 574.274231,127.229073 575.920166,117.117744 
z"/>
<path fill="#000000" opacity="1.000000" stroke="none" 
	d="
M585.249817,870.030090 
	C586.640991,878.655334 587.769531,886.892700 589.444519,895.017395 
	C590.257385,898.959961 589.052490,900.337463 585.327393,901.046753 
	C581.099976,901.851624 580.582825,899.222717 580.035583,896.313965 
	C579.821045,895.173340 579.683655,894.018250 579.376526,891.973755 
	C575.463867,898.626221 570.250427,902.713867 563.492493,904.693176 
	C560.821228,905.475525 558.252502,906.157898 557.234070,902.258789 
	C556.310852,898.724426 557.075317,896.810669 560.927124,895.719055 
	C571.774719,892.644836 576.575317,886.427673 575.696655,875.170715 
	C574.882385,864.739136 572.898315,854.394348 571.298401,844.031555 
	C570.846252,841.103088 569.932922,838.505066 574.273193,837.644531 
	C578.614746,836.783813 580.188721,838.338928 580.772644,842.535522 
	C582.031921,851.586304 583.707092,860.579224 585.249817,870.030090 
z"/>
<path fill="#000000" opacity="1.000000" stroke="none" 
	d="
M762.190063,295.983704 
	C755.850647,290.201935 755.811768,290.158569 761.636475,284.933502 
	C774.256226,273.613007 786.906982,262.327026 799.572571,251.057861 
	C803.832581,247.267593 805.248779,247.588196 808.446167,252.386292 
	C809.604004,254.123856 809.542114,255.339600 808.018921,256.685699 
	C793.323425,269.672913 778.646667,282.681427 763.942505,295.658752 
	C763.608032,295.953949 763.014465,295.955566 762.190063,295.983704 
z"/>
<path fill="#000000" opacity="1.000000" stroke="none" 
	d="
M607.595337,134.061935 
	C609.623474,129.456100 612.560364,132.409943 614.929016,132.898605 
	C617.819214,133.494858 616.877625,135.841278 616.370911,137.767166 
	C611.720581,155.442917 606.998169,173.100174 602.469177,190.806961 
	C601.625793,194.104294 600.294800,195.278671 596.886414,194.275330 
	C593.713806,193.341385 592.052673,192.269180 593.127563,188.370529 
	C598.073364,170.431992 602.739258,152.416260 607.595337,134.061935 
z"/>
<path fill="#000000" opacity="1.000000" stroke="none" 
	d="
M611.717773,116.074158 
	C610.199280,111.366646 612.093506,108.520996 616.072388,107.245842 
	C619.519592,106.141113 622.371582,107.766510 623.786621,110.959862 
	C625.109253,113.944450 624.469055,116.972031 621.615479,118.859497 
	C617.645325,121.485413 614.435913,120.002396 611.717773,116.074158 
z"/>
<path fill="#000000" opacity="1.000000" stroke="none" 
	d="
M825.395752,243.423462 
	C820.434265,245.468582 816.930969,244.262634 815.353699,240.310623 
	C814.022827,236.976089 815.909058,232.995041 819.322205,231.934738 
	C823.033997,230.781677 826.736755,232.799347 827.914429,236.591339 
	C828.766052,239.333313 827.690674,241.407074 825.395752,243.423462 
z"/>
</svg>